<?xml version="1.0" standalone="no"?>
<!DOCTYPE svg PUBLIC "-//W3C//DTD SVG 20010904//EN"
 "http://www.w3.org/TR/2001/REC-SVG-20010904/DTD/svg10.dtd">
<svg version="1.0" xmlns="http://www.w3.org/2000/svg"
 width="200.000000pt" height="94.000000pt" viewBox="0 0 200.000000 94.000000"
 preserveAspectRatio="xMidYMid meet">
<metadata>
Created by potrace 1.16, written by Peter Selinger 2001-2019
</metadata>
<g transform="translate(0.000000,94.000000) scale(0.100000,-0.100000)"
fill="#000000" stroke="none">
<path d="M1583 780 l-23 -9 0 -270 c0 -321 -12 -297 141 -288 113 6 168 29
206 86 33 49 30 94 -9 137 l-33 35 3 -95 4 -95 -34 -21 c-27 -16 -50 -20 -125
-20 l-93 0 0 126 0 126 115 -3 115 -4 0 41 c0 26 10 59 25 86 24 43 24 45 7
78 -9 19 -37 48 -60 64 -38 25 -55 29 -130 32 -48 2 -97 0 -109 -6z m235 -42
c7 -7 12 -43 12 -93 0 -107 -8 -115 -124 -122 l-86 -6 0 117 0 116 93 0 c59 0
97 -4 105 -12z"/>
<path d="M306 758 c-15 -24 -121 -336 -151 -443 -30 -108 -30 -107 -9 -103 13
2 25 23 40 68 l22 65 145 3 145 3 17 -66 c13 -45 24 -66 37 -71 28 -9 30 -2
14 47 -7 24 -33 105 -56 179 -59 188 -76 238 -99 293 -19 43 -23 47 -55 47
-26 0 -39 -6 -50 -22z m114 -130 c7 -24 18 -62 26 -86 8 -23 14 -65 14 -92 l0
-50 -105 0 -105 0 0 61 c0 33 7 84 16 112 30 100 27 97 88 97 l55 0 11 -42z"/>
<path d="M781 767 c-7 -9 -13 -111 -17 -285 l-7 -272 26 0 27 0 0 200 0 200
53 0 52 0 25 -78 c13 -42 39 -113 57 -157 18 -43 33 -81 33 -82 0 -8 50 -2 55
7 12 20 66 183 61 187 -2 2 -12 -18 -21 -46 l-17 -51 -52 0 -52 0 -23 63 c-12
34 -38 109 -56 167 -49 156 -51 160 -95 160 -21 0 -43 -6 -49 -13z"/>
<path d="M1237 773 c-13 -23 -88 -266 -84 -270 3 -3 11 13 18 36 l12 41 54 0
53 0 0 -132 c0 -73 3 -157 6 -185 6 -48 9 -53 32 -53 l25 0 -7 262 c-4 144
-12 272 -17 285 -7 19 -16 23 -48 23 -22 0 -42 -3 -44 -7z"/>
</g>
</svg>
